<svg width="47" height="46" viewBox="0 0 47 46" fill="none" xmlns="http://www.w3.org/2000/svg">
<path d="M26.712 44.128C21.2933 44.8533 15.704 45.216 9.944 45.216C8.45067 45.216 7.08533 45.1733 5.848 45.088C4.65333 45.0027 3.52267 44.7893 2.456 44.448C1.38933 44.1493 0.792 43.8507 0.664 43.552C0.536 43.2533 0.472 42.5707 0.472 41.504H7.256L7.192 36.576V34.656C7.192 34.0587 7.23467 33.5253 7.32 33.056L7.064 25.376C5.57067 25.12 4.67467 24.9067 4.376 24.736C4.12 24.5227 3.992 24.2667 3.992 23.968C3.992 23.6267 4.12 23.3067 4.376 23.008C4.58933 22.6667 4.86667 22.3253 5.208 21.984C6.14667 21.0453 6.65867 20.4053 6.744 20.064C6.82933 19.7227 6.95733 18.9973 7.128 17.888C7.29867 16.736 7.46933 15.4773 7.64 14.112L8.152 10.272C8.32267 9.07733 8.38667 8.33067 8.344 8.032L8.216 4L3.16 4.32C2.264 4.32 1.816 3.85067 1.816 2.912C1.77333 2.69867 2.09333 2.464 2.776 2.208C3.88533 1.78133 4.696 1.568 5.208 1.568L6.616 1.632L25.88 0.735996C27.7147 0.735996 28.632 1.184 28.632 2.08C28.632 2.976 28.0133 3.50933 26.776 3.68C24.6427 3.97866 23.384 4.21333 23 4.384C22.8293 4.85333 22.7013 5.216 22.616 5.472C22.232 6.45333 21.9973 7.34933 21.912 8.16L21.656 10.848C21.528 11.8293 21.4 12.8747 21.272 13.984C21.1867 15.0507 21.08 16.0747 20.952 17.056C20.8667 17.9947 20.7813 18.8053 20.696 19.488C20.6533 20.1707 20.568 20.8533 20.44 21.536C20.184 22.9013 20.056 25.6107 20.056 29.664L20.12 37.344C20.12 38.4107 20.248 39.264 20.504 39.904C20.8027 40.5013 21.6133 40.8 22.936 40.8L27.608 41.12C28.632 41.12 29.4 41.0133 29.912 40.8L31.448 40.032C31.96 39.8187 32.472 39.5627 32.984 39.264C34.392 38.496 35.2667 37.9413 35.608 37.6L37.464 35.808C38.232 34.912 39.0853 33.9733 40.024 32.992L44.376 28.32C45.656 28.7893 46.296 30.112 46.296 32.288C46.296 33.9093 45.9973 35.7653 45.4 37.856C44.8453 39.9467 44.376 41.3973 43.992 42.208C43.096 44.0853 42.1573 45.024 41.176 45.024C39.1707 45.024 37.1867 44.8533 35.224 44.512C33.304 44.2133 31.7893 44.064 30.68 44.064H28.632L27.096 44.128H26.712Z" fill="white"/>
</svg>
